<svg width="24" height="24" viewBox="0 0 24 24" fill="none" xmlns="http://www.w3.org/2000/svg">
<path d="M19.6361 5.33998C18.212 4.71399 16.6892 4.25903 15.0973 4C14.9018 4.33209 14.6734 4.77875 14.5159 5.13408C12.8236 4.89498 11.1469 4.89498 9.4857 5.13408C9.3283 4.77875 9.0946 4.33209 8.8974 4C7.3037 4.25903 5.77927 4.71565 4.35518 5.3433C1.48276 9.4213 0.704092 13.3981 1.09342 17.3184C2.99856 18.6551 4.84487 19.467 6.66 19.9983C7.1082 19.4189 7.5079 18.8029 7.8523 18.1536C7.1964 17.9195 6.5683 17.6306 5.9748 17.2951C6.1323 17.1856 6.2863 17.071 6.4351 16.9531C10.0551 18.5438 13.9881 18.5438 17.5649 16.9531C17.7154 17.071 17.8694 17.1856 18.0251 17.2951C17.4299 17.6322 16.8 17.9211 16.1442 18.1553C16.4885 18.8029 16.8865 19.4205 17.3364 20C19.1533 19.4687 21.0013 18.6567 22.9065 17.3184C23.3633 12.7738 22.1261 8.8335 19.6361 5.33998ZM8.3454 14.9075C7.2587 14.9075 6.3676 13.9543 6.3676 12.7937C6.3676 11.6331 7.2397 10.6783 8.3454 10.6783C9.4511 10.6783 10.3422 11.6314 10.3232 12.7937C10.325 13.9543 9.4511 14.9075 8.3454 14.9075ZM15.6545 14.9075C14.5678 14.9075 13.6767 13.9543 13.6767 12.7937C13.6767 11.6331 14.5488 10.6783 15.6545 10.6783C16.7602 10.6783 17.6514 11.6314 17.6323 12.7937C17.6323 13.9543 16.7602 14.9075 15.6545 14.9075Z" fill="#5865F2"/>
</svg>
