<svg width="24" height="24" viewBox="0 0 24 24" fill="none" xmlns="http://www.w3.org/2000/svg">
<path fill-rule="evenodd" clip-rule="evenodd" d="M4.89129 16.2669C5.39235 16.2656 5.87248 16.0659 6.22667 15.7114C6.58086 15.357 6.78027 14.8767 6.78129 14.3757V12.4857H4.89129C4.39044 12.4867 3.91037 12.6859 3.55598 13.0398C3.20158 13.3937 3.0017 13.8735 3 14.3744C3.00129 15.4171 3.84729 16.2631 4.89 16.2644L4.89129 16.2669ZM9.62529 12.4844C9.12422 12.4857 8.64409 12.6855 8.2899 13.0399C7.93571 13.3943 7.7363 13.8746 7.73529 14.3757V19.1109C7.73786 20.1537 8.58386 20.9984 9.62529 21.0009C10.1261 20.9996 10.6061 20.8 10.9602 20.4459C11.3144 20.0917 11.5139 19.6118 11.5153 19.1109V14.3744C11.5139 13.8735 11.3144 13.3936 10.9602 13.0394C10.6061 12.6853 10.1261 12.4857 9.62529 12.4844Z" fill="#E01E5A"/>
<path fill-rule="evenodd" clip-rule="evenodd" d="M7.73529 4.89129C7.73657 5.934 8.58257 6.78 9.62529 6.78129H11.5153V4.89129C11.5143 4.39044 11.315 3.91037 10.9611 3.55598C10.6072 3.20158 10.1274 3.0017 9.62657 3C9.12573 3.00136 8.64579 3.20092 8.29164 3.55507C7.93749 3.90922 7.73793 4.38916 7.73657 4.89L7.73529 4.89129ZM11.5153 9.62529C11.5139 9.12444 11.3144 8.6445 10.9602 8.29035C10.6061 7.9362 10.1261 7.73664 9.62529 7.73529H4.89C4.38916 7.73664 3.90922 7.9362 3.55507 8.29035C3.20092 8.6445 3.00136 9.12444 3 9.62529C3.00257 10.6693 3.84857 11.514 4.89 11.5153H9.62657C10.1274 11.5139 10.6074 11.3144 10.9615 10.9602C11.3157 10.6061 11.5139 10.1261 11.5153 9.62529Z" fill="#36C5F0"/>
<path fill-rule="evenodd" clip-rule="evenodd" d="M14.375 11.5166C14.8759 11.5152 15.3558 11.3157 15.71 10.9615C16.0641 10.6074 16.2637 10.1274 16.265 9.62657V4.89C16.2637 4.38938 16.0643 3.90963 15.7104 3.55552C15.3566 3.20141 14.8769 3.0017 14.3763 3C13.8755 3.00136 13.3955 3.20092 13.0414 3.55507C12.6872 3.90922 12.4877 4.38916 12.4863 4.89V9.62657C12.4889 10.668 13.3323 11.514 14.375 11.5166ZM19.109 7.73529C18.6082 7.73664 18.1283 7.9362 17.7741 8.29035C17.42 8.6445 17.2204 9.12444 17.219 9.62529V11.5153H19.109C19.6099 11.5143 20.09 11.315 20.4444 10.9611C20.7987 10.6072 20.9986 10.1274 21.0003 9.62657C20.999 9.12573 20.7994 8.64579 20.4453 8.29164C20.0911 7.93749 19.6112 7.73793 19.1103 7.73657L19.109 7.73529Z" fill="#2EB67D"/>
<path fill-rule="evenodd" clip-rule="evenodd" d="M12.4863 14.375C12.4889 15.4178 13.3336 16.2638 14.3763 16.265H19.1116C19.6122 16.2637 20.092 16.0643 20.4461 15.7104C20.8002 15.3566 20.9999 14.8769 21.0016 14.3763C21.0003 13.8755 20.8007 13.3955 20.4465 13.0414C20.0924 12.6872 19.6125 12.4877 19.1116 12.4863H14.3763C13.8755 12.4877 13.3955 12.6872 13.0414 13.0414C12.6872 13.3955 12.4877 13.8742 12.4863 14.375ZM16.2663 19.109C16.265 18.6082 16.0654 18.1283 15.7113 17.7741C15.3571 17.42 14.8772 17.2204 14.3763 17.219H12.4863V19.109C12.4889 20.153 13.3336 20.9978 14.3763 20.999C14.8772 20.9977 15.3571 20.7981 15.7113 20.444C16.0654 20.0898 16.265 19.6099 16.2663 19.109Z" fill="#ECB22E"/>
</svg>
