<svg width="24" height="24" viewBox="0 0 24 24" fill="none" xmlns="http://www.w3.org/2000/svg">
<path d="M22.5402 6.70357C22.2872 5.75697 21.5419 5.01159 20.5953 4.75864C18.8794 4.29883 11.9999 4.29883 11.9999 4.29883C11.9999 4.29883 5.1204 4.29883 3.40453 4.75864C2.45814 5.01159 1.71259 5.75697 1.45959 6.70357C1 8.41923 1 11.9989 1 11.9989C1 11.9989 1 15.5785 1.45959 17.294C1.71259 18.2406 2.45814 18.9862 3.40453 19.2391C5.1204 19.6987 11.9999 19.6987 11.9999 19.6987C11.9999 19.6987 18.8794 19.6987 20.5953 19.2391C21.5419 18.9862 22.2872 18.2406 22.5402 17.294C23 15.5785 23 11.9989 23 11.9989C23 11.9989 23 8.41923 22.5402 6.70357Z" fill="#ED1F24"/>
<path d="M9.79688 15.2993L15.5125 11.9993L9.79688 8.69922V15.2993Z" fill="white"/>
</svg>
