<svg width="40" height="40" viewBox="0 0 40 40" fill="none" xmlns="http://www.w3.org/2000/svg">
<path fill-rule="evenodd" clip-rule="evenodd" d="M20.0007 3.33398C10.7959 3.33398 3.33398 10.7959 3.33398 20.0007C3.33398 23.0261 4.1415 25.8667 5.55277 28.3145C5.84018 28.813 5.88948 29.42 5.64693 29.9418L4.22408 33.0033C3.35042 34.6561 4.54625 36.6673 6.43663 36.6673H20.0007C29.2053 36.6673 36.6673 29.2053 36.6673 20.0007C36.6673 10.7959 29.2053 3.33398 20.0007 3.33398ZM13.3343 22.1673C14.5309 22.1673 15.501 21.1972 15.501 20.0007C15.501 18.804 14.5309 17.834 13.3343 17.834C12.1377 17.834 11.1677 18.804 11.1677 20.0007C11.1677 21.1972 12.1377 22.1673 13.3343 22.1673ZM26.6677 22.1673C27.8643 22.1673 28.8343 21.1972 28.8343 20.0007C28.8343 18.804 27.8643 17.834 26.6677 17.834C25.471 17.834 24.501 18.804 24.501 20.0007C24.501 21.1972 25.471 22.1673 26.6677 22.1673ZM20.001 22.1673C21.1977 22.1673 22.1677 21.1972 22.1677 20.0007C22.1677 18.804 21.1977 17.834 20.001 17.834C18.8043 17.834 17.8343 18.804 17.8343 20.0007C17.8343 21.1972 18.8043 22.1673 20.001 22.1673Z" fill="white"/>
</svg>
