<svg xmlns="http://www.w3.org/2000/svg" width="201" height="94" viewBox="0 0 201 94" fill="none">
    <path d="M29.4818 11.8627C29.0072 13.4032 28.104 15.0711 27.305 16.1483C27.004 16.7042 26.5061 17.2255 26.2397 17.5846C25.9734 17.9436 25.9387 18.1405 25.9387 18.1405C25.9387 18.1405 25.4174 17.6426 24.9656 16.7508C24.5138 15.8591 24.363 14.4114 24.6408 12.8363C24.9532 11.0642 26.0533 9.43102 27.0839 8.19163C27.3502 7.83256 27.5818 7.67038 27.8482 7.31131C28.0798 7.14913 28.3114 6.98696 28.543 6.82478C29.0062 6.50043 29.2378 6.33825 29.2378 6.33825C29.2378 6.33825 29.5275 6.99837 29.7824 7.85538C29.6782 8.44607 29.771 9.07147 29.8637 9.69687C29.7596 10.2876 29.6207 11.0751 29.4818 11.8627Z" fill="#FF3D71"/>
    <path d="M20.6675 22.6922C20.552 24.499 20.2048 26.468 19.568 27.7768C19.4985 28.1706 19.2322 28.5297 19.1975 28.7265C19.1281 29.1203 19.0933 29.3172 18.8617 29.4794C18.7923 29.8732 18.526 30.2323 18.526 30.2323C18.526 30.2323 17.97 29.9312 17.3213 29.0048C16.9969 28.5415 16.6726 28.0783 16.3829 27.4182C16.0933 26.7581 15.8384 25.9011 15.8151 24.8819C15.7338 23.0404 16.3125 20.9093 17.181 19.4383C17.5167 18.6854 17.8525 17.9325 18.1188 17.5735C18.4199 17.0175 18.6515 16.8553 18.6515 16.8553C18.6515 16.8553 18.6515 16.8553 18.9758 17.3185C19.138 17.5502 19.4624 18.0134 19.7867 18.4766C19.9142 18.9051 20.2038 19.5652 20.2966 20.1906C20.5862 20.8508 20.6442 21.6731 20.6675 22.6922Z" fill="#FF3D71"/>
    <path d="M14.8001 35.2594C15.2752 37.1704 15.2871 39.4056 15.4031 41.0502C15.3337 41.444 15.4612 41.8725 15.3917 42.2663C15.3223 42.6601 15.4845 42.8917 15.415 43.2855C15.3109 43.8762 15.2762 44.0731 15.2762 44.0731C15.2762 44.0731 15.0793 44.0384 14.6855 43.9689C14.2917 43.8995 13.9326 43.6332 13.3766 43.3321C12.8207 43.0311 12.2994 42.5331 11.8129 41.8383C11.3264 41.1435 10.8398 40.4486 10.4227 39.36C9.78545 37.2174 9.80827 34.7853 10.1207 33.0132C10.1902 32.6194 10.2943 32.0288 10.3638 31.635C10.4332 31.2412 10.5026 30.8474 10.5373 30.6505C10.6415 30.0598 10.9078 29.7007 10.9078 29.7007C10.9078 29.7007 11.6607 30.0365 12.5063 30.9977C12.8306 31.4609 13.3519 31.9588 13.8037 32.8506C14.2902 33.5454 14.5452 34.4024 14.8001 35.2594Z" fill="#FF3D71"/>
    <path d="M13.1207 49.3792C14.2212 51.1974 15.0554 53.3747 15.5652 55.0887C15.7274 55.3203 15.6927 55.5172 15.8548 55.7488C16.017 55.9804 15.9823 56.1773 15.9476 56.3742C16.075 56.8027 16.2372 57.0344 16.2025 57.2312C16.2952 57.8567 16.4574 58.0883 16.4574 58.0883C16.4574 58.0883 16.2605 58.0535 15.832 58.181C15.4382 58.1116 14.8128 58.2043 14.2568 57.9033C13.0755 57.695 11.176 56.954 9.87856 55.1011C8.38425 53.2135 7.61949 50.6424 7.37599 48.5693C7.28325 47.9439 7.15579 47.5154 7.22522 47.1216C7.09776 46.6931 7.1672 46.2993 7.23664 45.9055C7.17861 45.0832 7.24805 44.6895 7.24805 44.6895C7.24805 44.6895 7.44494 44.7242 7.83873 44.7936C8.23252 44.863 8.78849 45.1641 9.34445 45.4651C9.90042 45.7662 10.6186 46.2988 11.1398 46.7968C11.4989 47.0631 11.8232 47.5263 12.1823 47.7927C12.4719 48.4528 12.7963 48.916 13.1207 49.3792Z" fill="#FF3D71"/>
    <path d="M15.9852 63.0807C16.1474 63.3123 16.5065 63.5786 16.7033 63.6133C16.8655 63.845 17.2246 64.1113 17.4215 64.146C17.7458 64.6092 18.3018 64.9103 18.6262 65.3735C18.7883 65.6051 18.9505 65.8367 19.1127 66.0683C19.3096 66.1031 19.2749 66.3 19.4718 66.3347C19.6687 66.3694 19.6339 66.5663 19.8308 66.601C20.1552 67.0642 20.4795 67.5275 20.8386 67.7938C21.522 68.5233 22.0086 69.2182 22.3329 69.6814C22.6573 70.1446 22.8195 70.3762 22.8195 70.3762C22.8195 70.3762 22.5878 70.5384 22.1593 70.6659C21.7308 70.7933 21.1054 70.8861 20.48 70.9788C19.8546 71.0716 18.8354 71.0949 18.0479 70.956C17.0634 70.7824 16.1136 70.4119 15.0364 69.6129C12.5809 68.5709 10.7623 66.2201 9.92808 64.0428C9.60372 63.5796 9.51098 62.9542 9.18663 62.491C9.05917 62.0625 8.93171 61.634 8.80425 61.2054C8.51462 60.5453 8.38716 60.1168 8.38716 60.1168C8.38716 60.1168 8.58405 60.1515 9.01256 60.0241C9.40635 60.0935 9.99703 60.1977 10.7846 60.3365C11.1784 60.406 11.5722 60.4754 11.9313 60.7417C12.3251 60.8112 12.6841 61.0775 13.2748 61.1817C13.6339 61.448 14.2246 61.5521 14.5836 61.8185C14.908 62.2817 15.4292 62.7796 15.9852 63.0807Z" fill="#FF3D71"/>
    <path d="M22.9669 75.2738C24.1136 75.679 25.4224 76.3158 26.5343 76.9179C27.0903 77.2189 27.6463 77.52 28.2022 77.821C28.3644 78.0526 28.7582 78.1221 28.9204 78.3537C29.1173 78.3884 29.4763 78.6547 29.6732 78.6894C30.5883 79.2568 31.3064 79.7895 31.8624 80.0905C32.0245 80.3221 32.4183 80.3916 32.6152 80.4263C32.8121 80.461 32.7774 80.6579 32.7774 80.6579C32.7774 80.6579 32.5458 80.8201 32.2795 81.1791C32.0131 81.5382 31.353 81.8279 30.6929 82.1175C30.0328 82.4071 29.141 82.8589 28.1219 82.8822C27.4965 82.975 27.1027 82.9056 26.4773 82.9983C25.8866 82.8941 25.2612 82.9869 24.5083 82.6511C23.9176 82.547 23.1648 82.2112 22.4119 81.8754C21.8559 81.5744 21.1031 81.2386 20.5818 80.7407C20.0259 80.4396 19.3077 79.907 18.7865 79.409C18.2652 78.9111 17.744 78.4131 17.188 78.1121C16.9911 78.0774 17.0258 77.8805 16.8289 77.8458C16.632 77.811 16.6668 77.6141 16.4699 77.5794C16.3077 77.3478 16.1455 77.1162 15.9833 76.8846C15.659 76.4214 15.2999 76.155 15.1725 75.7265C14.4196 75.3908 14.2921 74.9622 14.2921 74.9622C14.2921 74.9622 14.5237 74.8001 14.9523 74.6726C15.3808 74.5452 16.0062 74.4524 16.8285 74.3944C17.2222 74.4638 17.6508 74.3364 18.0445 74.4058C18.4383 74.4752 19.0637 74.3825 19.4575 74.4519C20.0482 74.5561 20.442 74.6255 21.0327 74.7297C21.8203 74.8685 22.3762 75.1696 22.9669 75.2738Z" fill="#FF3D71"/>
    <path d="M33.695 84.677C34.3204 84.5843 35.108 84.7232 35.6987 84.8273C36.2894 84.9315 37.1117 84.8734 37.7024 84.9776C38.293 85.0818 39.0806 85.2206 39.6713 85.3248C40.262 85.4289 40.8527 85.5331 41.4434 85.6372C42.6247 85.8455 43.6092 86.0191 44.1999 86.1233C44.7906 86.2274 45.3812 86.3316 45.3812 86.3316C45.3812 86.3316 45.3465 86.5285 45.0455 87.0845C44.7792 87.4435 44.4781 87.9995 43.9454 88.7176C43.6791 89.0767 43.4128 89.4358 42.9496 89.7601C42.7179 89.9223 42.4863 90.0845 42.4516 90.2814C42.22 90.4436 41.9884 90.6057 41.7568 90.7679C41.2936 91.0923 40.6334 91.3819 40.2049 91.5094C39.5448 91.799 38.9194 91.8917 38.0971 91.9498C37.2748 92.0078 36.6494 92.1005 35.8618 91.9617C35.0395 92.0197 34.252 91.8808 33.4991 91.545C32.7115 91.4062 31.9587 91.0704 31.1711 90.9315C30.4182 90.5958 29.6306 90.4569 29.0747 90.1558C28.6809 90.0864 28.5187 89.8548 28.1249 89.7854C27.7658 89.519 27.5689 89.4843 27.4068 89.2527C26.8508 88.9517 26.4917 88.6853 26.1327 88.419C25.4145 87.8863 25.0554 87.62 25.0554 87.62C25.0554 87.62 25.2871 87.4578 25.7503 87.1335C26.2135 86.8091 26.6767 86.4848 27.5337 86.2298C28.3908 85.9749 29.2825 85.5231 30.3364 85.3029C31.0312 84.8164 32.282 84.6309 33.695 84.677Z" fill="#FF3D71"/>
    <path d="M31.6916 14.2909C30.2092 14.6386 28.6226 15.5769 27.6615 16.4225C26.9666 16.9091 26.7003 17.2681 26.434 17.6272C25.9708 17.9516 25.936 18.1485 25.936 18.1485C25.936 18.1485 26.492 18.4495 27.4418 18.82C28.4262 18.9936 29.8045 19.2366 31.09 18.8542C32.5724 18.5066 33.9274 17.7304 34.8538 17.0817C35.0854 16.9195 35.3171 16.7573 35.5487 16.5952C35.7803 16.433 36.0119 16.2708 36.0119 16.2708C36.4751 15.9465 36.7067 15.7843 36.7067 15.7843C36.7067 15.7843 36.1855 15.2863 35.4326 14.9506C35.0736 14.6842 34.4829 14.5801 33.8922 14.4759C33.1393 14.1402 32.5139 14.2329 31.6916 14.2909Z" fill="#FF3D71"/>
    <path d="M23.8066 24.4695C22.2547 25.211 20.9925 26.6126 20.1588 27.8867C19.8925 28.2457 19.8577 28.4426 19.5914 28.8017C19.3251 29.1608 19.2904 29.3577 19.2556 29.5546C18.9893 29.9136 18.9199 30.3074 18.9199 30.3074C18.9199 30.3074 19.7075 30.4463 20.7267 30.423C21.3521 30.3303 21.9427 30.4344 22.6029 30.1448C23.2283 30.052 24.0853 29.7971 24.7801 29.3106C26.1351 28.5344 27.3626 27.3297 28.3585 26.2872C28.8564 25.766 29.1227 25.4069 29.3891 25.0479C29.6554 24.6888 29.6901 24.4919 29.6901 24.4919C29.6901 24.4919 29.4932 24.4572 29.331 24.2256C28.9372 24.1561 28.5782 23.8898 27.9875 23.7856C27.3968 23.6815 26.8061 23.5773 26.1807 23.6701C25.3237 23.925 24.4667 24.1799 23.8066 24.4695Z" fill="#FF3D71"/>
    <path d="M18.6652 36.354C17.2409 37.524 16.2683 39.5857 15.7936 41.1261C15.7242 41.5199 15.6548 41.9137 15.3884 42.2727C15.319 42.6665 15.2843 42.8634 15.2148 43.2572C15.1107 43.8479 15.076 44.0448 15.076 44.0448C15.076 44.0448 15.2729 44.0795 15.7014 43.9521C16.1299 43.8246 16.5584 43.6971 17.1838 43.6044C17.8092 43.5117 18.4693 43.222 18.9673 42.7008C19.6274 42.4111 20.3222 41.9246 20.8549 41.2065C22.0824 40.0018 22.9855 38.3339 23.5876 37.222C23.657 36.8282 23.8887 36.666 23.9581 36.2722C23.9928 36.0753 24.2591 35.7162 24.2939 35.5193C24.5602 35.1603 24.5949 34.9634 24.5949 34.9634C24.5949 34.9634 23.8073 34.8245 22.5912 34.8131C21.9658 34.9058 21.3404 34.9986 20.6803 35.2882C20.0549 35.3809 19.3601 35.8675 18.6652 36.354Z" fill="#FF3D71"/>
    <path d="M17.4248 49.1293C16.4869 50.9941 16.105 53.1599 16.1864 55.0014C16.1516 55.1983 16.1169 55.3952 16.2791 55.6268C16.2444 55.8237 16.4066 56.0553 16.3718 56.2522C16.4993 56.6807 16.4646 56.8776 16.592 57.3061C16.5573 57.503 16.7195 57.7346 16.6848 57.9315C16.6501 58.1284 16.6501 58.1284 16.6501 58.1284C16.6501 58.1284 16.8817 57.9662 17.1133 57.804C17.3449 57.6419 17.8081 57.3175 18.503 56.831C19.4641 55.9854 20.6916 54.7807 21.5948 53.1128C22.301 51.4102 22.6482 49.4412 22.8912 48.063C22.9607 47.6692 23.0301 47.2754 23.0648 47.0785C23.1343 46.6847 23.169 46.4878 23.2037 46.2909C23.2731 45.8971 23.3426 45.5034 23.3426 45.5034C23.3426 45.5034 23.1457 45.4686 22.7172 45.5961C22.2886 45.7235 21.8601 45.851 21.2347 45.9438C20.5746 46.2334 19.9145 46.523 19.4166 47.0443C19.1849 47.2064 18.7217 47.5308 18.4554 47.8899C17.9922 48.2142 17.7258 48.5733 17.4248 49.1293Z" fill="#FF3D71"/>
    <path d="M20.3363 61.4159C20.3016 61.6128 20.2321 62.0065 20.1974 62.2034C20.1627 62.4003 20.0933 62.7941 20.2554 63.0257C20.1513 63.6164 20.244 64.2418 20.3715 64.6703C20.3368 64.8672 20.4642 65.2957 20.4295 65.4926C20.3948 65.6895 20.5917 65.7242 20.557 65.9211C20.5223 66.118 20.7192 66.1528 20.6844 66.3496C20.8119 66.7782 20.9046 67.4036 21.229 67.8668C21.6808 68.7585 21.9357 69.6155 22.2601 70.0788C22.5844 70.542 22.7119 70.9705 22.7119 70.9705C22.7119 70.9705 22.7813 70.5767 23.0129 70.4145C23.2793 70.0554 23.5456 69.6964 24.0783 68.9782C24.3793 68.4223 24.912 67.7041 25.0508 66.9165C25.3866 66.1637 25.5602 65.1792 25.7338 64.1947C26.081 62.2258 25.8375 60.1527 25.4898 58.6703C25.3623 58.2418 25.4318 57.848 25.2696 57.6164C25.3737 57.0257 25.2116 56.7941 25.2463 56.5972C25.1188 56.1687 24.9914 55.7402 24.9914 55.7402C24.9914 55.7402 24.7598 55.9023 24.3312 56.0298C23.9027 56.1572 23.4395 56.4816 22.9416 57.0029C22.71 57.165 22.4436 57.5241 22.212 57.6863C21.9457 58.0453 21.7141 58.2075 21.4477 58.5666C21.1467 59.1226 20.8804 59.4816 20.8109 59.8754C20.5099 60.4314 20.4404 60.8252 20.3363 61.4159Z" fill="#FF3D71"/>
    <path d="M26.7786 72.094C26.9641 73.3448 27.3812 74.4334 27.7983 75.5221C28.1227 75.9853 28.4123 76.6454 28.7367 77.1086C28.8988 77.3402 29.061 77.5719 29.2232 77.8035C29.3854 78.0351 29.5475 78.2667 29.7097 78.4983C30.3931 79.2279 31.0766 79.9574 31.6325 80.2585C31.7947 80.4901 32.1885 80.5595 32.1538 80.7564C32.3507 80.7911 32.316 80.988 32.316 80.988C32.316 80.988 32.3507 80.7911 32.617 80.4321C32.6864 80.0383 32.9875 79.4823 33.1264 78.6947C33.2652 77.9071 33.4041 77.1196 33.3808 76.1004C33.4502 75.7066 33.3575 75.0812 33.4269 74.6874C33.2995 74.2589 33.4036 73.6682 33.2762 73.2397C32.8358 71.1319 31.9321 69.3484 31.1907 67.7966L31.0285 67.5649L30.8663 67.3333C30.7042 67.1017 30.7042 67.1017 30.542 66.8701C30.3798 66.6385 30.2176 66.4069 30.0555 66.1753C29.7311 65.712 29.5689 65.4804 29.5689 65.4804C29.5689 65.4804 29.3373 65.6426 29.071 66.0017C28.8047 66.3607 28.3414 66.6851 28.0057 67.438C27.7393 67.797 27.6699 68.1908 27.4036 68.5499C27.1372 68.909 27.0678 69.3028 26.9636 69.8934C26.8942 70.2872 26.7901 70.8779 26.7206 71.2717C26.7553 71.0748 26.6859 71.4686 26.7786 72.094Z" fill="#FF3D71"/>
    <path d="M35.9053 6.50601C33.8903 7.57181 32.7902 9.20499 31.9218 10.676C31.6902 10.8382 31.6207 11.232 31.3891 11.3941C31.3197 11.7879 31.285 11.9848 31.2503 12.1817C30.9839 12.5408 30.9145 12.9346 30.9145 12.9346C30.9145 12.9346 31.1114 12.9693 31.5399 12.8418C31.7368 12.8766 31.9684 12.7144 32.3969 12.5869C32.6285 12.4247 33.057 12.2973 33.2886 12.1351C34.5742 11.7527 36.5198 11.0807 38.1411 9.94548C39.9246 9.04185 41.1521 7.83718 42.3448 6.8294C42.5765 6.66722 42.8428 6.30815 43.0744 6.14598C43.306 5.9838 43.5376 5.82162 43.5723 5.62473C43.8387 5.26566 44.0703 5.10348 44.0703 5.10348C44.0703 5.10348 43.8734 5.06876 43.4796 4.99933C43.2827 4.96461 43.0858 4.92989 42.692 4.86045C42.2982 4.79102 42.1013 4.7563 41.6728 4.88376C41.279 4.81432 40.8505 4.94178 40.422 5.06924C40.2251 5.03452 39.9935 5.1967 39.7966 5.16198C39.5997 5.12727 39.3681 5.28944 39.1712 5.25472C38.9396 5.4169 38.7427 5.38218 38.5111 5.54436C38.2795 5.70654 38.0826 5.67182 37.851 5.834C37.6194 5.99617 37.4225 5.96145 37.1909 6.12363C36.3686 6.18166 36.137 6.34383 35.9053 6.50601Z" fill="#FF3D71"/>
    <path d="M36.3645 79.8747C36.6889 80.3379 36.9785 80.998 37.3029 81.4612C37.6272 81.9245 38.1485 82.4224 38.6697 82.9204C39.191 83.4183 39.747 83.7193 40.106 83.9857C40.662 84.2867 41.218 84.5878 41.577 84.8541C42.5268 85.2246 43.4765 85.5951 44.2641 85.7339C44.8548 85.8381 45.4455 85.9422 45.4455 85.9422C45.4455 85.9422 45.4802 85.7454 45.3875 85.1199C45.26 84.6914 45.202 83.8692 45.1092 83.2437C44.9818 82.8152 44.8543 82.3867 44.7269 81.9582C44.5647 81.7266 44.5994 81.5297 44.4372 81.2981C44.2751 81.0665 44.3098 80.8696 44.1476 80.638C44.0201 80.2095 43.6958 79.7462 43.5683 79.3177C43.244 78.8545 43.1165 78.426 42.7922 77.9628C41.4947 76.1099 40.1279 74.6508 38.8885 73.6202C38.9232 73.4233 38.761 73.1917 38.5641 73.1569C38.402 72.9253 38.2051 72.8906 38.2051 72.8906C38.0429 72.659 37.6838 72.3927 37.4869 72.358C37.1279 72.0916 36.9657 71.86 36.9657 71.86C36.9657 71.86 36.7341 72.0222 36.6299 72.6129C36.3636 72.9719 36.2594 73.5626 35.9237 74.3155C35.7848 75.1031 35.6459 75.8906 35.6692 76.9098C35.5304 77.6974 35.7506 78.7513 36.3645 79.8747Z" fill="#FF3D71"/>
    <path d="M169.147 14.9441C170.629 15.2918 172.181 16.0333 173.177 17.0758C173.675 17.597 174.138 17.9214 174.405 18.2804C174.671 18.6395 174.902 18.8017 174.902 18.8017C174.902 18.8017 174.115 18.9405 173.165 19.311C172.181 19.4846 170.802 19.7276 169.517 19.3453C168.034 18.9976 166.68 18.2214 165.753 17.5727C165.521 17.4106 165.29 17.2484 165.058 17.0862C164.861 17.1209 164.63 16.9587 164.595 16.7618C164.363 16.5997 164.132 16.4375 164.132 16.4375C164.132 16.4375 164.456 15.9743 165.406 15.6038C165.765 15.3375 166.356 15.2333 166.946 15.1291C167.502 14.8281 168.325 14.8861 169.147 14.9441Z" fill="#FF3D71"/>
    <path d="M177 24.9261C178.552 25.6676 179.814 27.0691 180.648 28.3433C180.914 28.7023 180.949 28.8992 181.215 29.2583C181.447 29.4205 181.516 29.8143 181.551 30.0112C181.817 30.3702 181.887 30.764 181.887 30.764C181.887 30.764 181.099 30.9029 180.08 30.8796C179.454 30.7868 178.864 30.891 178.204 30.6014C177.578 30.5086 176.918 30.219 176.026 29.7672C174.671 28.991 173.444 27.7863 172.448 26.7438C171.95 26.2226 171.684 25.8635 171.417 25.5044C171.151 25.1454 171.116 24.9485 171.116 24.9485C171.116 24.9485 171.313 24.9138 171.475 24.6821C171.869 24.6127 172.228 24.3464 172.819 24.2422C173.41 24.1381 174 24.0339 174.626 24.1267C175.483 24.3816 176.305 24.4396 177 24.9261Z" fill="#FF3D71"/>
    <path d="M182.107 36.6153C183.531 37.7853 184.469 39.6501 184.943 41.1905C185.013 41.5843 185.082 41.9781 185.349 42.3372C185.418 42.7309 185.453 42.9278 185.522 43.3216C185.626 43.9123 185.661 44.1092 185.661 44.1092C185.661 44.1092 185.464 44.1439 185.036 44.0165C184.607 43.889 184.179 43.7615 183.553 43.6688C182.928 43.5761 182.268 43.2864 181.77 42.7652C181.11 42.4755 180.415 41.989 179.882 41.2709C178.655 40.0662 177.786 38.5952 177.15 37.2864C177.08 36.8926 176.848 36.7304 176.779 36.3366C176.744 36.1397 176.478 35.7806 176.443 35.5838C175.98 35.2594 175.945 35.0625 175.945 35.0625C175.945 35.0625 176.733 34.9236 177.949 34.9122C178.574 35.005 179.2 35.0977 179.86 35.3873C180.682 35.4454 181.377 35.9319 182.107 36.6153Z" fill="#FF3D71"/>
    <path d="M183.47 48.9623C184.57 50.5955 184.79 52.9929 184.709 54.8344C184.743 55.0313 184.778 55.2282 184.616 55.4598C184.651 55.6567 184.488 55.8883 184.523 56.0852C184.396 56.5137 184.43 56.7106 184.303 57.1391C184.338 57.336 184.175 57.5676 184.21 57.7645C184.245 57.9614 184.245 57.9614 184.245 57.9614C184.245 57.9614 184.013 57.7992 183.782 57.6371C183.55 57.4749 183.087 57.1505 182.392 56.664C181.431 55.8184 180.203 54.6137 179.3 52.9458C178.397 51.2779 178.05 49.309 177.807 47.9307C177.737 47.5369 177.668 47.1431 177.633 46.9462C177.564 46.5525 177.529 46.3556 177.494 46.1587C177.425 45.7649 177.355 45.3711 177.355 45.3711C177.355 45.3711 177.552 45.3364 177.981 45.4638C178.409 45.5913 178.838 45.7188 179.463 45.8115C180.123 46.1011 180.784 46.3908 181.478 46.8773C181.71 47.0395 182.173 47.3638 182.44 47.7229C182.937 48.2441 183.204 48.6032 183.47 48.9623Z" fill="#FF3D71"/>
    <path d="M180.759 61.2141C180.794 61.411 180.863 61.8048 180.898 62.0017C180.932 62.1986 181.002 62.5924 180.84 62.824C180.944 63.4147 180.851 64.0401 180.724 64.4686C180.758 64.6655 180.631 65.094 180.666 65.2909C180.7 65.4878 180.503 65.5225 180.538 65.7194C180.573 65.9163 180.376 65.951 180.411 66.1479C180.283 66.5764 180.191 67.2018 179.866 67.665C179.414 68.5568 179.159 69.4138 178.835 69.877C178.511 70.3402 178.383 70.7687 178.383 70.7687C178.383 70.7687 178.314 70.3749 178.082 70.2128C177.816 69.8537 177.55 69.4946 177.017 68.7765C176.716 68.2205 176.183 67.5024 176.044 66.7148C175.709 65.9619 175.535 64.9774 175.361 63.993C175.014 62.024 175.258 59.9509 175.605 58.4685C175.733 58.04 175.663 57.6462 175.826 57.4146C175.953 56.9861 175.918 56.7892 176.08 56.5576C176.208 56.1291 176.335 55.7006 176.335 55.7006C176.335 55.7006 176.567 55.8627 176.996 55.9902C177.424 56.1177 177.887 56.442 178.385 56.9633C178.617 57.1254 178.883 57.4845 179.115 57.6467C179.381 58.0058 179.613 58.1679 179.879 58.527C180.145 58.8861 180.412 59.2452 180.516 59.8358C180.585 60.2296 180.655 60.6234 180.759 61.2141Z" fill="#FF3D71"/>
    <path d="M174.549 72.054C174.364 73.3048 173.946 74.3934 173.529 75.4821C173.205 75.9453 172.915 76.6054 172.591 77.0686C172.429 77.3003 172.267 77.5319 172.105 77.7635C171.942 77.9951 171.78 78.2267 171.618 78.4583C170.935 79.1879 170.251 79.9174 169.695 80.2185C169.533 80.4501 169.139 80.5195 169.174 80.7164C168.977 80.7511 169.012 80.948 169.012 80.948C169.012 80.948 168.977 80.7511 168.711 80.3921C168.641 79.9983 168.34 79.4423 168.201 78.6547C168.062 77.8672 167.924 77.0796 167.947 76.0604C167.877 75.6666 167.97 75.0412 167.901 74.6474C168.028 74.2189 167.924 73.6282 168.052 73.1997C168.492 71.0919 169.396 69.3084 170.137 67.7566L170.299 67.525L170.461 67.2933C170.624 67.0617 170.624 67.0617 170.786 66.8301C170.948 66.5985 171.11 66.3669 171.272 66.1353C171.597 65.6721 171.759 65.4404 171.759 65.4404C171.759 65.4404 171.99 65.6026 172.257 65.9617C172.523 66.3208 172.986 66.6451 173.322 67.398C173.588 67.7571 173.658 68.1508 173.924 68.5099C174.19 68.869 174.26 69.2628 174.364 69.8535C174.433 70.2473 174.538 70.8379 174.607 71.2317C174.538 70.8379 174.445 71.4633 174.549 72.054Z" fill="#FF3D71"/>
    <path d="M164.958 79.8333C164.634 80.2965 164.344 80.9566 164.02 81.4198C163.695 81.8831 163.174 82.381 162.653 82.8789C162.132 83.3769 161.576 83.6779 161.217 83.9443C160.661 84.2453 160.105 84.5464 159.746 84.8127C158.796 85.1832 157.846 85.5537 157.058 85.6925C156.468 85.7967 155.877 85.9008 155.877 85.9008C155.877 85.9008 155.842 85.7039 155.935 85.0785C156.063 84.65 156.121 83.8277 156.213 83.2023C156.341 82.7738 156.468 82.3453 156.596 81.9168C156.758 81.6852 156.723 81.4883 156.885 81.2567C157.048 81.0251 157.013 80.8282 157.175 80.5966C157.302 80.1681 157.627 79.7048 157.754 79.2763C158.079 78.8131 158.206 78.3846 158.53 77.9214C159.828 76.0685 161.195 74.6094 162.434 73.5788C162.596 73.3471 162.793 73.3124 162.758 73.1155C162.921 72.8839 163.118 72.8492 163.118 72.8492C163.28 72.6176 163.639 72.3513 163.836 72.3165C164.195 72.0502 164.357 71.8186 164.357 71.8186C164.357 71.8186 164.589 71.9808 164.693 72.5715C164.959 72.9305 165.063 73.5212 165.399 74.2741C165.538 75.0617 165.677 75.8492 165.653 76.8684C165.792 77.656 165.572 78.7099 164.958 79.8333Z" fill="#FF3D71"/>
    <path d="M171.362 12.5147C171.837 14.0552 172.705 15.5262 173.539 16.8003C173.84 17.3562 174.338 17.8775 174.604 18.2366C174.871 18.5956 175.102 18.7578 175.102 18.7578C175.102 18.7578 175.624 18.2599 176.075 17.3681C176.527 16.4764 176.91 15.1909 176.4 13.4536C176.088 11.6815 174.988 10.0483 173.992 9.00582C173.297 8.51929 173.065 8.35711 172.799 7.99804C172.568 7.83587 172.301 7.47679 172.104 7.51151C171.838 7.15244 171.606 6.99026 171.606 6.99026C171.606 6.99026 171.317 7.65038 171.062 8.5074C170.934 8.93591 170.842 9.56131 170.981 10.3489C170.888 10.9743 171.027 11.7619 171.362 12.5147Z" fill="#FF3D71"/>
    <path d="M180.103 22.9526C180.219 24.7594 180.566 26.7283 181.006 28.0719C181.075 28.4656 181.342 28.8247 181.376 29.0216C181.446 29.4154 181.48 29.6123 181.712 29.7745C181.781 30.1683 182.048 30.5273 182.048 30.5273C182.048 30.5273 182.801 30.1916 183.449 29.2651C183.774 28.8019 184.098 28.3387 184.388 27.6786C184.677 27.0184 184.932 26.1614 184.99 25.3391C185.072 23.4976 184.493 21.3665 183.624 19.8955C183.289 19.1426 182.953 18.3898 182.686 18.0307C182.42 17.6716 182.154 17.3126 182.154 17.3126C182.154 17.3126 181.992 17.5442 181.829 17.7758C181.667 18.0074 181.343 18.4706 181.019 18.9339C180.694 19.3971 180.405 20.0572 180.312 20.6826C180.219 21.308 180.161 22.1303 180.103 22.9526Z" fill="#FF3D71"/>
    <path d="M185.974 35.5189C185.499 37.4298 185.452 39.4682 185.371 41.3097C185.44 41.7035 185.313 42.132 185.382 42.5258C185.452 42.9196 185.29 43.1512 185.324 43.3481C185.429 43.9388 185.463 44.1357 185.463 44.1357C185.463 44.1357 185.66 44.101 186.054 44.0315C186.448 43.9621 186.807 43.6958 187.363 43.3947C187.919 43.0937 188.44 42.5957 188.961 42.0978C189.448 41.4029 189.934 40.7081 190.351 39.6195C191.023 37.6738 190.966 35.0448 190.653 33.2727C190.584 32.8789 190.48 32.2882 190.41 31.8944C190.341 31.5007 190.271 31.1069 190.237 30.91C190.133 30.3193 189.866 29.9602 189.866 29.9602C189.866 29.9602 189.113 30.296 188.268 31.2572C187.943 31.7204 187.422 32.2183 186.97 33.1101C186.646 33.5733 186.194 34.465 185.974 35.5189Z" fill="#FF3D71"/>
    <path d="M187.778 49.2097C186.678 51.0279 185.843 53.2052 185.137 54.9539C184.975 55.1855 185.009 55.3824 184.847 55.614C184.685 55.8456 184.72 56.0425 184.754 56.2394C184.627 56.6679 184.465 56.8996 184.499 57.0964C184.372 57.525 184.245 57.9535 184.245 57.9535C184.245 57.9535 184.441 57.9187 184.87 58.0462C185.264 57.9768 185.889 58.0695 186.445 57.7685C187.626 57.5602 189.526 56.8192 190.823 54.9663C192.318 53.0787 193.082 50.5076 193.326 48.4345C193.419 47.8091 193.349 47.4153 193.477 46.9868C193.604 46.5583 193.535 46.1645 193.465 45.7707C193.558 45.1453 193.489 44.7516 193.489 44.7516C193.489 44.7516 193.292 44.7863 192.898 44.8557C192.504 44.9251 191.948 45.2262 191.392 45.5272C190.836 45.8283 190.118 46.3609 189.597 46.8589C189.238 47.1252 188.913 47.5884 188.554 47.8548C188.427 48.2833 188.103 48.7465 187.778 49.2097Z" fill="#FF3D71"/>
    <path d="M185.114 62.8752C184.951 63.1068 184.592 63.3731 184.395 63.4078C184.233 63.6394 183.874 63.9058 183.677 63.9405C183.353 64.4037 182.797 64.7047 182.473 65.168C182.31 65.3996 182.148 65.6312 181.986 65.8628C181.789 65.8975 181.824 66.0944 181.627 66.1291C181.43 66.1639 181.465 66.3608 181.268 66.3955C180.944 66.8587 180.619 67.3219 180.26 67.5883C179.577 68.3178 179.09 69.0126 178.766 69.4759C178.442 69.9391 178.279 70.1707 178.279 70.1707C178.279 70.1707 178.511 70.3329 178.939 70.4603C179.368 70.5878 179.993 70.6805 180.619 70.7733C181.244 70.866 182.263 70.8893 183.051 70.7505C184.035 70.5769 184.985 70.2064 186.062 69.4074C188.252 68.0063 189.873 65.6902 190.904 63.4782C191.229 63.015 191.321 62.3896 191.646 61.9264C191.773 61.4979 191.901 61.0693 192.063 60.8377C192.353 60.1776 192.48 59.7491 192.48 59.7491C192.48 59.7491 192.283 59.7838 191.855 59.6564C191.461 59.7258 190.87 59.83 190.083 59.9688C189.689 60.0383 189.295 60.1077 188.936 60.374C188.542 60.4435 188.183 60.7098 187.592 60.8139C187.233 61.0803 186.643 61.1844 186.284 61.4508C186.029 62.3078 185.67 62.5741 185.114 62.8752Z" fill="#FF3D71"/>
    <path d="M178.361 75.231C177.214 75.6362 175.905 76.2731 174.99 76.8404C174.434 77.1415 173.878 77.4425 173.322 77.7436C173.16 77.9752 172.766 78.0446 172.604 78.2762C172.407 78.311 172.048 78.5773 171.851 78.612C170.936 79.1794 170.218 79.712 169.662 80.0131C169.5 80.2447 169.106 80.3141 168.909 80.3489C168.712 80.3836 168.747 80.5805 168.747 80.5805C168.747 80.5805 168.979 80.7426 169.245 81.1017C169.511 81.4608 170.171 81.7504 170.832 82.0401C171.492 82.3297 172.383 82.7815 173.403 82.8048C174.028 82.8976 174.422 82.8281 175.047 82.9209C175.638 82.8167 176.263 82.9095 177.016 82.5737C177.607 82.4695 178.36 82.1338 179.113 81.798C179.669 81.497 180.421 81.1612 180.943 80.6632C181.499 80.3622 182.217 79.8295 182.738 79.3316C183.259 78.8336 183.781 78.3357 184.336 78.0347C184.533 77.9999 184.499 77.803 184.696 77.7683C184.892 77.7336 184.858 77.5367 185.055 77.502C185.217 77.2704 185.379 77.0388 185.541 76.8072C185.866 76.3439 186.225 76.0776 186.352 75.6491C186.839 74.9543 187.001 74.7226 187.001 74.7226C187.001 74.7226 186.769 74.5605 186.341 74.433C185.912 74.3056 185.287 74.2128 184.464 74.1548C184.071 74.2242 183.642 74.0968 183.248 74.1662C182.855 74.2356 182.229 74.1429 181.835 74.2123C181.245 74.3165 180.851 74.3859 180.26 74.4901C179.507 74.8258 178.917 74.93 178.361 75.231Z" fill="#FF3D71"/>
    <path d="M162.731 10.7884C164.317 11.7267 166.066 12.4335 167.548 12.7811C167.977 12.9086 168.174 12.8739 168.405 13.036C168.834 13.1635 169.031 13.1288 169.262 13.291C169.691 13.4184 169.888 13.3837 169.888 13.3837C169.888 13.3837 169.853 13.1868 169.587 12.8277C169.552 12.6308 169.32 12.4687 169.251 12.0749C169.216 11.878 168.95 11.5189 168.684 11.1598C167.85 9.88572 166.553 8.28726 164.735 7.18674C164.503 7.02456 164.272 6.86239 164.04 6.70021C163.808 6.53803 163.612 6.57275 163.38 6.41058C163.148 6.2484 162.951 6.28312 162.72 6.12094C162.488 5.95876 162.291 5.99348 162.06 5.8313C161.863 5.86602 161.631 5.70384 161.434 5.73856C161.237 5.77328 161.006 5.6111 160.809 5.64582C160.612 5.68054 160.38 5.51836 160.183 5.55308C159.987 5.5878 159.79 5.62252 159.593 5.65723C159.199 5.72667 158.805 5.7961 158.574 5.63393C158.18 5.70336 157.983 5.73808 157.786 5.7728C157.392 5.84224 157.195 5.87695 157.195 5.87695C157.195 5.87695 157.427 6.03913 157.693 6.3982C157.925 6.56038 157.96 6.75727 158.191 6.91945C158.423 7.08163 158.654 7.2438 158.921 7.60287C159.72 8.68009 161.144 9.85005 162.731 10.7884Z" fill="#FF3D71"/>
    <path d="M167.632 84.6364C167.006 84.5437 166.219 84.6826 165.628 84.7867C165.037 84.8909 164.215 84.8329 163.624 84.937C163.034 85.0412 162.246 85.18 161.655 85.2842C161.065 85.3884 160.474 85.4925 159.883 85.5967C158.702 85.805 157.717 85.9786 157.127 86.0827C156.536 86.1869 155.945 86.291 155.945 86.291C155.945 86.291 155.98 86.4879 156.281 87.0439C156.547 87.4029 156.848 87.9589 157.381 88.6771C157.647 89.0361 157.914 89.3952 158.377 89.7195C158.609 89.8817 158.84 90.0439 158.875 90.2408C159.107 90.403 159.338 90.5652 159.57 90.7273C160.033 91.0517 160.693 91.3413 161.122 91.4688C161.782 91.7584 162.407 91.8512 163.229 91.9092C164.052 91.9672 164.677 92.0599 165.465 91.9211C166.287 91.9791 167.075 91.8402 167.827 91.5045C168.615 91.3656 169.368 91.0298 170.155 90.891C170.908 90.5552 171.696 90.4163 172.252 90.1153C172.646 90.0458 172.808 89.8142 173.202 89.7448C173.561 89.4784 173.758 89.4437 173.92 89.2121C174.476 88.9111 174.835 88.6447 175.194 88.3784C175.912 87.8457 176.271 87.5794 176.271 87.5794C176.271 87.5794 176.039 87.4172 175.576 87.0929C175.113 86.7685 174.65 86.4442 173.793 86.1893C172.936 85.9343 172.044 85.4825 170.99 85.2623C170.295 84.7758 169.045 84.5903 167.632 84.6364Z" fill="#FF3D71"/>
</svg>